<?xml version="1.0" encoding="utf-8"?>
<!-- Generator: Adobe Illustrator 19.1.0, SVG Export Plug-In . SVG Version: 6.00 Build 0)  -->
<svg version="1.1" id="Layer_1" xmlns="http://www.w3.org/2000/svg" xmlns:xlink="http://www.w3.org/1999/xlink" x="0px" y="0px"
	 viewBox="-814.5 1125.9 55 47.1" style="enable-background:new -814.5 1125.9 55 47.1;" xml:space="preserve">
<style type="text/css">
	.st0{fill:#666666;}
</style>
<path class="st0" d="M-787.3,1134.5c-5.3,0-17.4,0-23.5,0c-2,0-3.6-1.9-3.6-4.3l0,0c0-2.3,1.6-4.3,3.7-4.3h47.6c2,0,3.7,1.9,3.7,4.3
	l0,0c0,2.3-1.6,4.2-3.6,4.3C-769.3,1134.4-781.8,1134.5-787.3,1134.5z"/>
<path class="st0" d="M-787.3,1173c-5.3,0-17.4,0-23.5,0c-2,0-3.6-1.9-3.6-4.3l0,0c0-2.3,1.6-4.3,3.7-4.3h47.6c2,0,3.7,1.9,3.7,4.3
	l0,0c0,2.3-1.6,4.2-3.6,4.3C-769.4,1173-781.8,1173-787.3,1173z"/>
<path class="st0" d="M-787.3,1153.7c-5.3,0-17.4,0-23.5,0c-2,0-3.6-1.9-3.6-4.3l0,0c0-2.3,1.6-4.3,3.7-4.3h47.6c2,0,3.7,1.9,3.7,4.3
	l0,0c0,2.3-1.6,4.2-3.6,4.3C-769.4,1153.7-781.8,1153.7-787.3,1153.7z"/>
</svg>
