<?xml version="1.0" encoding="utf-8"?>
<!-- Generator: Adobe Illustrator 19.1.0, SVG Export Plug-In . SVG Version: 6.00 Build 0)  -->
<svg version="1.1" id="Layer_1" xmlns="http://www.w3.org/2000/svg" xmlns:xlink="http://www.w3.org/1999/xlink" x="0px" y="0px"
	 viewBox="-245 336 121 121" style="enable-background:new -245 336 121 121;" xml:space="preserve">
<style type="text/css">
	.st0{fill:#9EB76C;}
	.st1{fill:#5A7622;}
	.st2{fill:#FFFFFF;}
</style>
<g>
	<path class="st0" d="M-124,449.9c0,3.9-3.2,7.1-7.1,7.1h-106.8c-3.9,0-7.1-3.2-7.1-7.1V343.1c0-3.9,3.2-7.1,7.1-7.1h106.8
		c3.9,0,7.1,3.2,7.1,7.1V449.9z"/>
	<path id="Facebook_1_" class="st1" d="M-191.7,379.1c0,1.6,0,8.9,0,8.9h-6.4v11h6.4v29.9h13.2V399h8.9c0,0,0.8-5.2,1.2-11
		c-1.2,0-10.1,0-10.1,0s0-6.3,0-7.5c0-1.1,1.4-2.6,2.9-2.6c1.4,0,4.4,0,7.2,0c0-1.5,0-6.6,0-11.4c-3.7,0-7.9,0-9.8,0
		C-192,366.6-191.7,377.5-191.7,379.1z"/>
	<path id="Facebook_3_" class="st2" d="M-192.9,377.9c0,1.6,0,8.9,0,8.9h-6.4v10.9h6.4v29.9h13.2v-29.9h8.9c0,0,0.8-5.2,1.2-11
		c-1.2,0-10.1,0-10.1,0s0-6.3,0-7.5c0-1.1,1.4-2.6,2.9-2.6c1.4,0,4.4,0,7.2,0c0-1.5,0-6.6,0-11.4c-3.7,0-7.9,0-9.8,0
		C-193.3,365.4-192.9,376.3-192.9,377.9z"/>
</g>
</svg>
