<?xml version="1.0" encoding="utf-8"?>
<!-- Generator: Adobe Illustrator 19.1.0, SVG Export Plug-In . SVG Version: 6.00 Build 0)  -->
<svg version="1.1" id="Layer_1" xmlns="http://www.w3.org/2000/svg" xmlns:xlink="http://www.w3.org/1999/xlink" x="0px" y="0px"
	 viewBox="-245 336 121 121" style="enable-background:new -245 336 121 121;" xml:space="preserve">
<style type="text/css">
	.st0{fill:#9EB76C;}
	.st1{fill:#5A7622;}
	.st2{fill:#FFFFFF;}
</style>
<g>
	<path class="st0" d="M-124,449.9c0,3.9-3.2,7.1-7.1,7.1h-106.8c-3.9,0-7.1-3.2-7.1-7.1V343.1c0-3.9,3.2-7.1,7.1-7.1h106.8
		c3.9,0,7.1,3.2,7.1,7.1V449.9z"/>
	<g>
		<g>
			<g>
				<g>
					<path class="st1" d="M-163.8,368h-39c-6.1,0-11.1,4.9-11.1,10.8v38c0,5.9,5,10.8,11.1,10.8h39c6.1,0,11.1-4.9,11.1-10.8v-38
						C-152.7,372.8-157.7,368-163.8,368z M-171,376.3c0-1.4,1.1-2.4,2.5-2.4c2.4,0,4.9,0,7.3,0c1.3,0,2.3,0.8,2.5,2
						c0,0.1,0,0.2,0,0.4c0,2.3,0,4.7,0,7c0,1.2-0.8,2.1-2,2.3c-0.2,0-0.3,0-0.5,0c-1.2,0-2.4,0-3.6,0c-1.2,0-2.4,0-3.6,0
						c-1.1,0-2.3-0.7-2.5-2c0-0.1,0-0.2,0-0.3C-171,381-171,378.6-171,376.3z M-183.3,385.6c6.8,0,12.3,5.2,12.3,11.7
						s-5.5,11.7-12.3,11.7s-12.3-5.2-12.3-11.7C-195.6,391-190.2,385.6-183.3,385.6z M-158.7,393c0,6.9,0,13.8,0,20.8
						c0,1.5,0,3.1,0,4.6c0,1.1-0.8,2.1-2,2.3c-0.2,0-0.5,0.1-0.7,0.1c-7.1,0-14.1,0-21.2,0c-7.6,0-15.1,0-22.7,0c-0.3,0-0.6,0-1-0.1
						c-1-0.3-1.6-1.1-1.7-2c0-0.1,0-0.3,0-0.4c0-8.4,0-16.8,0-25.2c0-0.1,0-0.2,0-0.3c1.9,0,3.7,0,5.5,0c-1.3,4.8-0.7,9.5,1.9,13.8
						c1.8,3.1,4.4,5.5,7.7,7.2c3.2,1.7,6.7,2.5,10.4,2.3c6.2-0.3,11.1-2.9,14.9-7.6c3.6-4.8,4.6-10,3.2-15.7c1.8,0,3.7,0,5.5,0
						C-158.7,392.8-158.7,392.9-158.7,393z"/>
				</g>
			</g>
		</g>
	</g>
	<g>
		<g>
			<g>
				<g>
					<path class="st2" d="M-165,366.7h-39c-6.1,0-11.1,4.9-11.1,10.8v38c0,5.9,5,10.8,11.1,10.8h39c6.1,0,11.1-4.9,11.1-10.8v-38
						C-153.9,371.6-158.9,366.7-165,366.7z M-172.2,375.1c0-1.4,1.1-2.4,2.5-2.4c2.4,0,4.9,0,7.3,0c1.3,0,2.3,0.8,2.5,2
						c0,0.1,0,0.2,0,0.4c0,2.3,0,4.7,0,7c0,1.2-0.8,2.1-2,2.3c-0.2,0-0.3,0-0.5,0c-1.2,0-2.4,0-3.6,0c-1.2,0-2.4,0-3.6,0
						c-1.1,0-2.3-0.7-2.5-2c0-0.1,0-0.2,0-0.3C-172.2,379.7-172.2,377.4-172.2,375.1z M-184.5,384.4c6.8,0,12.3,5.2,12.3,11.7
						s-5.5,11.7-12.3,11.7c-6.8,0-12.3-5.2-12.3-11.7C-196.8,389.7-191.4,384.4-184.5,384.4z M-159.9,391.7c0,6.9,0,13.8,0,20.8
						c0,1.5,0,3.1,0,4.6c0,1.1-0.8,2.1-2,2.3c-0.2,0-0.5,0.1-0.7,0.1c-7.1,0-14.1,0-21.2,0c-7.6,0-15.1,0-22.7,0c-0.3,0-0.6,0-1-0.1
						c-1-0.3-1.6-1.1-1.7-2c0-0.1,0-0.3,0-0.4c0-8.4,0-16.8,0-25.2c0-0.1,0-0.2,0-0.3c1.9,0,3.7,0,5.5,0c-1.3,4.8-0.7,9.5,1.9,13.8
						c1.8,3.1,4.4,5.5,7.7,7.2c3.2,1.7,6.7,2.5,10.4,2.3c6.2-0.3,11.1-2.9,14.9-7.6c3.6-4.8,4.6-10,3.2-15.7c1.8,0,3.7,0,5.5,0
						C-159.9,391.5-159.9,391.6-159.9,391.7z"/>
				</g>
			</g>
		</g>
	</g>
</g>
</svg>
