<?xml version="1.0" encoding="utf-8"?>
<!-- Generator: Adobe Illustrator 19.1.0, SVG Export Plug-In . SVG Version: 6.00 Build 0)  -->
<svg version="1.1" id="Layer_1" xmlns="http://www.w3.org/2000/svg" xmlns:xlink="http://www.w3.org/1999/xlink" x="0px" y="0px"
	 viewBox="-285.6 376.6 37.7 37.7" style="enable-background:new -285.6 376.6 37.7 37.7;" xml:space="preserve">
<style type="text/css">
	.st0{fill:#666666;}
</style>
<path class="st0" d="M-262.8,395.5l14,14c1.1,1.1,1.1,2.9,0,4l0,0c-1.1,1.1-2.9,1.1-4,0l-14-14l-14,14c-1.1,1.1-2.9,1.1-4,0l0,0
	c-1.1-1.1-1.1-2.9,0-4l14-14l-14-14c-1.1-1.1-1.1-2.9,0-4l0,0c1.1-1.1,2.9-1.1,4,0l14,14l14-14c1.1-1.1,2.9-1.1,4,0l0,0
	c1.1,1.1,1.1,2.9,0,4L-262.8,395.5z"/>
</svg>
