<?xml version="1.0" encoding="utf-8"?>
<!-- Generator: Adobe Illustrator 19.1.0, SVG Export Plug-In . SVG Version: 6.00 Build 0)  -->
<svg version="1.1" id="Layer_1" xmlns="http://www.w3.org/2000/svg" xmlns:xlink="http://www.w3.org/1999/xlink" x="0px" y="0px"
	 viewBox="-546 752 64 41.1" style="enable-background:new -546 752 64 41.1;" xml:space="preserve">
<style type="text/css">
	.st0{fill:#666666;}
</style>
<path class="st0" d="M-514.4,760.6c-6.2,0-20.3,0-27.4,0c-2.3,0-4.2-1.9-4.2-4.3v0c0-2.3,1.9-4.3,4.3-4.3h55.5
	c2.3,0,4.3,1.9,4.3,4.3l0,0c0,2.3-1.9,4.2-4.2,4.3C-493.4,760.5-507.9,760.6-514.4,760.6z"/>
<path class="st0" d="M-514.4,793.1c-6.2,0-20.3,0-27.4,0c-2.3,0-4.2-1.9-4.2-4.3v0c0-2.3,1.9-4.3,4.3-4.3h55.5
	c2.3,0,4.3,1.9,4.3,4.3l0,0c0,2.3-1.9,4.2-4.2,4.3C-493.5,793.1-508,793.1-514.4,793.1z"/>
<path class="st0" d="M-514.4,776.8c-6.2,0-20.3,0-27.4,0c-2.3,0-4.2-1.9-4.2-4.3v0c0-2.3,1.9-4.3,4.3-4.3h55.5
	c2.3,0,4.3,1.9,4.3,4.3v0c0,2.3-1.9,4.2-4.2,4.3C-493.5,776.8-508,776.8-514.4,776.8z"/>
</svg>
