<?xml version="1.0" encoding="utf-8"?>
<!-- Generator: Adobe Illustrator 19.1.0, SVG Export Plug-In . SVG Version: 6.00 Build 0)  -->
<svg version="1.1" id="Layer_1" xmlns="http://www.w3.org/2000/svg" xmlns:xlink="http://www.w3.org/1999/xlink" x="0px" y="0px"
	 viewBox="-571.6 756.5 36.2 36.2" style="enable-background:new -571.6 756.5 36.2 36.2;" xml:space="preserve">
<style type="text/css">
	.st0{fill:#666666;}
</style>
<path class="st0" d="M-549.7,774.5l13.5,13.5c1.1,1.1,1.1,2.8,0,3.8l0,0c-1.1,1.1-2.8,1.1-3.8,0l-13.5-13.5l-13.5,13.5
	c-1.1,1.1-2.8,1.1-3.8,0l0,0c-1.1-1.1-1.1-2.8,0-3.8l13.5-13.5l-13.5-13.5c-1.1-1.1-1.1-2.8,0-3.8l0,0c1.1-1.1,2.8-1.1,3.8,0
	l13.5,13.5l13.5-13.5c1.1-1.1,2.8-1.1,3.8,0l0,0c1.1,1.1,1.1,2.8,0,3.8L-549.7,774.5z"/>
</svg>
