<?xml version="1.0" encoding="utf-8"?>
<!-- Generator: Adobe Illustrator 19.1.0, SVG Export Plug-In . SVG Version: 6.00 Build 0)  -->
<svg version="1.1" id="Layer_1" xmlns="http://www.w3.org/2000/svg" xmlns:xlink="http://www.w3.org/1999/xlink" x="0px" y="0px"
	 viewBox="0 0 132.1 236.3" style="enable-background:new 0 0 132.1 236.3;" xml:space="preserve">
<style type="text/css">
	.st0{fill:#80A82F;}
	.st1{fill:#81A830;}
	.st2{fill:#99BC50;}
	.st3{fill:#9CBE54;}
	.st4{fill:#85AC39;}
	.st5{fill:#9ABC50;}
	.st6{fill:#A5C25B;}
	.st7{fill:#A4C35D;}
	.st8{fill:#9CBC51;}
	.st9{fill:#E6EAC3;}
	.st10{fill:#8EB546;}
	.st11{fill:#86AE3E;}
	.st12{fill:#BCD58A;}
	.st13{fill:#6C9419;}
	.st14{fill:#709725;}
	.st15{fill:#95BA4C;}
	.st16{fill:#91B645;}
	.st17{fill:#6D941D;}
	.st18{fill:#90B649;}
	.st19{fill:#87AE39;}
	.st20{fill:#6C9320;}
	.st21{fill:#638A1E;}
	.st22{fill:#96BB4D;}
	.st23{fill:#97BB4E;}
	.st24{fill:#8AB142;}
	.st25{fill:#8FB546;}
	.st26{fill:#FFFFFF;}
	.st27{fill:url(#SVGID_1_);}
</style>
<path class="st0" d="M73.7,54.9c-0.2,5.9-1.7,11.6-4.2,16.9c-1.4,2.9-2.7,4.2-6.1,7c0,0-1.6,0.8-1.6,0.8c0,0-5.7,0.5-7.9,1.2
	c-4.2,1.4-6.7,0.9-10-2.2c-2.7-3.4,0.1-6.6,0.4-9.8c0.1-1.2,2.5-2,4.1-1.7c2.3,0.4,1.4,2.8,2.2,4.2c0.8-3.2-0.4-6.6-1.4-8.9
	c-1.5-3.6-0.5-7.5-2.5-10.7c-0.9-1.5-0.1-2.7,0.5-4c0.4-1,2.2-1.7,0.8-3.2c-1.9-2.8,0.1-4.6,1.7-6.5c0.2-0.4,0.9-0.1,0.8-0.5
	c-0.1-0.2-0.4,0.5-0.9,0.4c-1.9-0.7-1.6-2.8-2.6-4c-0.4-3.2,0.3-6.1,1.7-8.9c1-1.3,2.2-2.4,3.5-3.4c4.2-1.4,0-2.7-0.1-4
	c-0.5-1.6,0-2.9,1.1-4.1c0.3-0.2,0.7-0.3,1.1-0.3c1,0.4,0.3-0.6,0.6-0.7c0.1-0.2,0.2-0.4,0.3-0.6c0.1-0.2,0.2-0.4,0.4-0.5
	c3.6-4,5.4-4,8.2,0.5c1.8,3,4,5.7,5.4,9c0.3,0.6,0.5,1.2,0.4,1.9c-0.2,1.1-0.1,2.2-0.2,3.3c-0.3,1.9-0.1,3.6,0.8,5.5
	C73.7,38.9,74.1,46.8,73.7,54.9z"/>
<path class="st0" d="M19.7,24.7c1.1-2.3,2.5-4.3,4.7-5.8c1.8-0.4,1.7,0.9,1.7,2c0.1,1.5-0.4,3.2,1.7,4.3c1.4-4.6,4-3.4,6.7-1.3
	c0.8,1.2,0.8,2.5,0.5,3.9c-0.1,0.4-0.3,0.8-0.6,1.1c-1.4,1.7-0.3,3.6-0.7,5.4c-0.1,0.4-0.2,0.8-0.5,1.1c-0.2,1.1-0.9,2.1-2.3,3.4
	c3.3-0.4,1.8-2.4,2.3-3.4c0.3-0.3,0.6-0.7,1-1C37,33,38,34.9,39,37c0.6,1.8,1.5,3.4,1.9,5.2c0.2,1.9-0.2,3.8,0.1,5.7
	c0.1,0.6,0.3,1.5-0.1,1.9c-5.2,5-3.6,11.5-4,17.5c0,0.7-0.5,1.2-0.7,1.7c-0.2,0.6-2-1.2-1.1,1.1c1.6,3.7,1.3,7.7,0.2,11.7
	c-1.7,0.6-3.2,0.1-4.7-0.5c-2.1-1.6-4.4-3.1-6.1-5.2c-0.7-0.8-1.7-1.7,0-2.6c0.4,0,0.8,0.2,1.1,0.5c-0.1-0.2-0.3-0.3-0.5-0.4
	c-2.4-1.1-3.3-3.7-5.3-5.2c-4.5-4.9-6-11.1-7.3-17.4c-0.1-0.6-0.3-1.4-0.1-1.9c2.8-5.1,0.9-10.9,2.6-16.1
	C16,29.8,18.9,27.9,19.7,24.7z"/>
<path class="st1" d="M40,42.2c-0.6-1.6-1.9-3-1.9-4.9c0.6-1.7-0.5-2.9-1.4-4.2c-1.1-1.6-2-3.2-1-5.1c2.5-1.3,0.9-2.8,0.2-4.2
	c-1.5-3.4-4.4-6.3-3.7-10.5l0,0c0.4-0.2,0.7-0.6,1-0.9c1.3-1.5,3.2-2,4.9-2.9c2.5-1.1,3.9,0.1,4.6,2.4c0.6,1.8,1.4,3.5,3.6,4.5
	c0.1-3.8-4.6-7.3-0.6-11c2.2-1.6,4.2-3.6,6.9-4.6c2.5-1.1,3.6-0.2,3.3,2.4c-0.2,1.7-0.9,3.4-1.4,5c-0.9,1.7-0.4,3.9-2.2,5.2
	c-1.1,0-1.3-0.5-1-1.4c-0.5,0.7,0,1.4-0.1,2.1c-0.1,1.1-0.1,2.1,0,3.2c0,0.5-0.2,0.9-0.4,1.3c-2.3,4.9-4.3,9.9-4.2,15.4
	c0,1.6-0.4,3.1-1.1,4.6c-0.8,1-2.7,0.9-2.5,2.7c-0.2,0.9-0.5,1.7-1.4,2C40.6,43.5,40.4,42.7,40,42.2z"/>
<path class="st2" d="M48.6,44.2c0.5-0.1,1-0.4,1.3-0.3c0.8,0.3,0.6,1.1,0.3,1.6c-0.9,1.3-1.8,2.6-2.8,3.8c-0.8,1.1-0.9,1.9,0.7,2.3
	c0.6,0.2,0.9,1.2,0.8,2.1c-0.1,1.1,0,2.2-0.6,3.2c-0.7,1.3-0.2,2.2,1.1,2.5c1.4,0.4,1.7,1,1.3,2.4c-0.7,2.5-0.7,5.1,1.3,7.1
	c0.7,0.7,0.3,1-0.2,1.5c-0.5,0.6-0.1,1.2,0,1.8c0.2,0.7,0.1,1.3-0.9,1c-0.6-0.2-1.2-0.5-1.7-0.8c-1.3-0.7-1.2-0.7-0.4-2.8
	c0.1-0.4,0.1-1,0-1.3c-0.4-0.7-0.9-0.5-1.5,0c-0.4,0.3-1.2,0.2-1.8,0.4c-1,0.3-1.8,0.9-1,2.1c0.8,1.3,0.4,2.3-0.5,3.4
	c-0.8,1-1.2,2.2-0.4,3.5C42,80.8,41,84.2,40,87.6c-0.9,0.3-1.7,0.7-2.7,0.5c-0.4-0.2-0.8-0.4-1.2-0.8c-0.1-0.3-0.1-0.5-0.2-0.8
	c-0.3-2.5,1-4.8,0.8-7.3c2.5-10.6,3.3-21.5,6.9-31.9C45,45.7,46.6,44.6,48.6,44.2z"/>
<path class="st3" d="M19.7,24.7c0.1,2.2-1.1,4-2.4,5.6c-0.9,1.1-1.4,2.1-1.3,3.4c0,0.5,0.1,1-0.1,1.4c-2.1,3.7-0.5,7,1.4,10.2
	c0,0.1-0.1,0.3-0.3,0.5c-0.8-0.3-1.6-0.7-2.5-1c-1.1,2.5-1.2,4.9-0.5,7.5c1.4,5.7,3.2,11.2,6.8,15.9c1.2,2.1,3.3,3.9,1.9,6.7
	c-3.9-5.5-5.7-8.2-7.8-12.3c-0.7-1.4-2.1-4.5-2.8-5.9c-1.8-5.6-1.4-7.3-0.7-16c0.2-1.7,1-4.1,1.7-5.8C15.1,31.2,16.8,27.7,19.7,24.7
	z"/>
<path class="st4" d="M40.1,87.1c-1.2-1.9,0.3-3.6,0.4-5.4c0.1-2.2,1.9-2.9,3.4-4c0.8,0.4,1.8,0.7,2.5,1.3c2.3,2,5,1.8,7.6,1.2
	c1.1-0.2,2.2-0.6,3.2-1.1c1.8-0.8,4.9-1.6,6.5-0.6c-2.3,1.9-14.6,8.2-19.8,8.8C42.6,87.8,41.2,88.3,40.1,87.1z"/>
<path class="st5" d="M32.2,13.3c1.6,3.8,3.1,7.6,5.4,11.1c0.7,1,0.9,2.4,1.2,3.6c0.1,0.3-0.2,0.9-0.5,1.2c-0.4,0.4-0.8,0-1.2-0.4
	c-0.3-0.3-0.7-0.7-1-1c-2.7-0.2-0.6-3-2-3.8c-0.7,0.3-1.4,0.8-2.2,0.1c-0.6-0.5-1.2-1-1.8-1.6c-0.2,0.4-0.5,0.7-0.5,0.9
	c0.3,1.6,0.4,3.6-1.5,3.9c-1.6,0.3-3.7-2.7-3.6-4.5c0-0.8,0.4-1.5,0.6-2.3c0.2-0.7-0.4-1.2-0.9-1.6C26.7,16.7,29.2,14.6,32.2,13.3z"
	/>
<path class="st6" d="M53.4,8.6c-0.1-2.1,0.9-3.9,1.5-5.9c0.3-1.2,0.2-1.3-1.4-1.7C53.2,1,52.8,1,52.5,0.9c2.9-1.4,3.9-1.3,5.4,0.5
	c1.7,2.1,3.3,4.3,4.8,6.6c2.2,3.5,4.6,6.9,6.2,10.7c0.3,0.8,0.5,1.6-0.2,2.3c-1.9-2.9-3.9-5.8-5.7-8.7c-1-1.6-2.6-2.2-3.8-3.6
	c-1.6,1.2-2.2,3.1-3.9,3.7C54.2,11.4,53.1,10.4,53.4,8.6z"/>
<path class="st7" d="M68.8,21.2c0.1-0.8,0.1-1.6,0.2-2.3c0.5,0.8,1.3,1.6,1.4,2.4c0.4,4.1,2.6,7.8,3,11.9c0.6,6.1,1.5,12.3,1.1,18.5
	c-0.1,1.1,0.1,2.2-0.6,3.2c-0.4-4.2-0.7-8.4-1.9-12.5c0.7-3.3-1.3-6-2.1-9c-0.1-0.5-0.2-1.1-0.5-1.3c-2.7-2.2-1.7-4.6-0.6-7.1
	c-0.5-0.7-0.5-1.3,0-2C68.8,22.4,68.8,21.8,68.8,21.2z"/>
<path class="st8" d="M45.7,5.5c-0.7,2.6-0.9,5.2,1.1,7.5c1.4,1.6,0.9,3.5,0.7,5.5c-3.3-0.8-4.7-3.2-6-5.7c0.7-2.2-0.8-2.7-2.4-3.2
	c-0.3-0.1-0.6-0.1-0.9-0.1C40.2,7.4,43,6.6,45.7,5.5z"/>
<path class="st9" d="M36.2,87.3c0.3,0,0.5,0.1,0.8,0.2c0.7,0.5,1.1,1.4,1.9,1.7c0,0.5,0.2,1,0,1.4c-1.7,4.7-2,6.3,0.1,14.2
	c0,0,1,3.8,3.1,4.2c-1.1,1-2.3,1.2-3.7,1.6c0.1-0.8-1.1-6.3-1.1-6.3C35.5,96.8,35.6,94.6,36.2,87.3z"/>
<path class="st10" d="M22.7,74.8c-0.6-2.2-1.3-4.4-1.9-6.7c2.5,1.1,3.3,3.8,4.8,5.7v0c-0.7,0.1-1.8,0.2-1,1.3
	c1.1,1.5,2.6,2.6,4.3,3.3c1,0.4,1.4,1.1,1.5,2.1c1.1,0.7,2,1.6,0.9,3C27.6,81.5,25.1,78.3,22.7,74.8z"/>
<path class="st11" d="M31.3,83.6c0.1-1.1-0.5-2-0.9-3c1.7-0.1,3.3,0.1,4.8,1c1.1-0.4,1.2-2.2,2.8-2c0.1,2.5-0.2,4.9-2,6.8
	C34.3,85.7,32.6,85.1,31.3,83.6z"/>
<path class="st12" d="M39,89.2c-1.7,0.5-1.7,0.5-1.9-1.7c1-0.1,2-0.2,3.1-0.4c1.3,0.1,2.5,0.2,3.8,0.3c-0.7,0.8-1.6,0.8-2.5,0.8
	C40.4,88.2,39.5,88.3,39,89.2z"/>
<path class="st13" d="M63,48.9c0-1.1,0.1-2.2,0-3.3c-0.2-1.4-0.6-3.2-2-3.6c-2-0.6-2.1-1.7-1.5-3.2c0.6-1.4,0.7-2.7,0.3-4.2
	c-0.3-1.2,0.5-2,1.5-1.7c1.2,0.3,1.7-0.7,2.6-0.8c1.1-0.1,1.8,0.3,1.9,1.4c0.4,2.6,0.9,5.1,2.5,7.5c2.1,3.3,1.9,7.3,1.8,11
	c0,1.3-1.1,2.5-1.8,3.8c0,0.1-0.6,0-0.8-0.2c-0.8-0.8-1.3-1.8-1.1-3c0.1-0.5,0.3-0.9,0.2-1.4C66.6,49.5,65.4,48.7,63,48.9z"/>
<path class="st14" d="M44.8,39.3c0.3-3.3,0.2-6.6,1-9.8c0.8-3.5,2-7,3.1-10.5c0.2-0.7,1-0.7,1.6-0.8c0.5,0.5,0.7,1.1,0.6,1.8
	c-0.2,1.1-0.4,2.1-0.7,3.2c-0.2,0.6-0.4,1.2-0.9,1.7c-1.1,3.1-1.9,6.3-1.9,9.6c0,0.2,0,0.4,0.1,0.6c0,0.4,0,0.8,0,1.2
	c-0.2,1.3-0.5,2.5-1.7,3.2c-0.2,0-0.4,0.1-0.6,0.1C45.2,39.5,45,39.4,44.8,39.3z"/>
<path class="st15" d="M45.8,39.3c0.7-1.2,1.1-2.4,1-3.8c0.3-0.4,0.6-0.7,0.9-1l0,0c0.9,0.1,1.8,0.3,1.6,1.6
	c-0.2,1.1,0.5,1.2,1.3,1.3l0,0c-0.8,1.7-1.7,3.4-2.5,5.1c-0.3,0.6,0,1.2,0.6,1.6c-1.2,1-1.9,2.7-3.8,2.9c-0.6-0.6-0.7-1.3-0.7-2.1
	C44.6,43.1,44.2,40.9,45.8,39.3z"/>
<path class="st16" d="M50.5,20.1c0-0.6,0-1.3,0-1.9c0-0.3,0-0.7,0-1c-0.4-1.5,0.2-2.7,1-3.8c0.9-0.6,0.9-1.5,0.9-2.4
	c0-0.9,0.1-1.8,1-2.4c1,1.1,2.3,2.1,1.9,3.9c0,0,0,0,0,0c-0.4,0.3-0.4,0.9-1,0.9c-1.3,1-1.8,2.3-1.9,3.8c1,1.6,0.6,3.2,0,4.8
	c-0.6,1.3-1.5,2.3-2.9,2.9c0-0.6,0-1.3,0-1.9C50.5,22.2,49.7,21,50.5,20.1z"/>
<path class="st17" d="M58.9,30.7c-0.2,1.5-1.1,2.9-1.9,4.2c-0.4,0.7-1,1.2-1.6,1.7c-0.1,0.1-0.7-0.1-0.7-0.3c-0.7-2.2,0.9-5.5,3-6.3
	C58.1,29.9,58.6,30.1,58.9,30.7z"/>
<path class="st18" d="M56.5,24.9c0.7-1.5,1-2.4,1.5-3.2c0.7-1.2,2.3-1.6,3.5-0.9c0.6,0.4,0.6,1,0.5,1.6c-0.1,1-0.4,1.9-1.6,1.9
	c-0.6,0-1.2-0.1-1.8,0C58.2,24.4,57.7,24.5,56.5,24.9z"/>
<path class="st19" d="M52.5,22c-0.8-0.5-0.7-1.2-0.5-2.1c0.3-0.9,0.3-1.8,0.5-2.8c1,0.7,1.5,2.1,3.2,1.6c0.6-0.2,1.2,0.4,1.3,1.1
	c0,0.5-0.3,0.9-0.8,1C54.9,21.3,53.7,21.7,52.5,22z"/>
<path class="st20" d="M50.4,31.7c-0.1-2.3,0.4-3.9,1.6-5.2c0.5-0.6,1.2-0.5,1.7-0.2c0.6,0.4,0.7,1.1,0.5,1.7
	C53.5,29.6,52.2,30.7,50.4,31.7z"/>
<path class="st6" d="M68.8,23c0,0.7,0,1.3,0,2C67.8,24.3,67.9,23.6,68.8,23z"/>
<path class="st6" d="M54.4,13.4c0.3-0.3,0.6-0.6,1-0.9c0,0.3,0,0.6,0,0.9C55,13.7,54.7,13.7,54.4,13.4L54.4,13.4z"/>
<path class="st15" d="M50.6,37.4c0.1-0.1,0.2-0.4,0.2-0.4C51.1,37.1,51,37.2,50.6,37.4L50.6,37.4z"/>
<path class="st16" d="M54.4,13.4c0.3,0,0.6,0,0.9,0C55,14.1,54.7,14.1,54.4,13.4z"/>
<path class="st21" d="M44.8,45.1c0,0.6,0,1.3,0,1.9c-0.1,0.3-0.3,0.6-0.4,0.9c-0.6,3.4-1.8,6.8-2.3,10.2c-1.2,7.2-2.6,14.4-4.1,21.5
	c-0.3,0.5-0.8,0.9-0.9,1.4c-0.3,1.5-1.2,0.8-1.9,0.5c-1.2-2.5,0.4-5.3-0.7-7.8c0.9-1.7,0.1-3.1-0.7-4.5c-0.4-0.7-0.7-1.4-0.2-2.3
	c0.5,0.4,0.9,0.9,1.4,1.3c0.1,0.1,0.3,0.2,0.4,0.2c0.2-0.1,0.6-0.4,0.6-0.5c-1-2.3,0.5-5-1.2-7.3c-0.7-1-0.3-1.8,1.1-1.7
	c0.8,0,1.1-0.5,1.1-1.2c-0.1-0.8-0.3-1.5-0.6-2.3c-0.3-0.7-0.8-1.4-0.9-2.2c-0.2-1,0.3-1.9,1-2.6c0.7-0.8,1.4-0.2,2.1,0.2
	c0.7,0.4,1.2,0.3,1.3-0.5c0.1-0.8,0.3-1.7,0-2.4C39.3,46,40,44.1,40,42.2c0.3,0.3,0.7,0.6,1,0.9c2.2,0.3,1.3-1,1-2
	c0-0.6,0-1.2,0-1.8c0-0.6,0-1.3,0.7-1.5c0.7-0.2,1,0.5,1.4,0.9c0.2,0.2,0.5,0.4,0.7,0.6l0,0C45.6,41.2,45.5,43.2,44.8,45.1z"/>
<path class="st22" d="M29.5,59.4c-0.9,0.4-1.3,0.1-1.7-0.1c-0.9-0.5-1.6-0.2-1.7,0.8c-0.1,0.9,0.2,1.9,0.2,2.8
	c0,1.1,0.1,2.1-0.9,3.1c-0.9-1-1.6-2-2.5-2.9c-1-1-2.4-2-0.5-3.4c0.2-0.1,0.2-0.7,0.1-0.9c-0.8-1.7,0.1-2.7,1.2-4
	c1.6-2,1.2-4.5,0.2-6.7c-0.4-0.9-0.9-1.7-0.3-2.6c0.8-1.3,2-2.1,3.5-1.8c1,0.2,1.8,0.2,2.8-0.1c0.7-0.2,1.1,0.3,1.1,1.1
	c0,0.5-0.2,1.1,0,1.4c2,2.9,1.6,5.6-0.4,8.3C29.5,55.8,29.2,57.7,29.5,59.4z"/>
<path class="st23" d="M34.2,24c0.7,0.4,1,1.1,1,1.9c0,0.8,0.3,1.5,1,1.9c0,1.5,0,2.9,1.2,4.2c0.9,0.9,1.1,2.5,1.5,3.8
	c0.2,0.6-0.3,1.1-0.8,1.5c-0.1-0.3-0.2-0.6-0.4-0.8c-1.2-1.9-1.2-1.9-3.5-1.1c-0.4-0.3-0.8-0.5-1-0.9c-0.9-0.6-1-1.4-0.7-2.4
	c0.3-0.7,0.5-1.3,0.1-2.1c-0.4-1-0.3-1,1.1-1.2c0.1,0,0.3,0,0.5,0l0,0C34.2,27.2,34.2,25.6,34.2,24z"/>
<path class="st24" d="M33.3,35.5c0.4,0.7,0.9,1.3,1.3,1.9c0.7,1,0.2,1.8-0.3,2.6c-0.7,1.1-1.3,0.2-1.9-0.1c-0.7-0.3-1.5-0.3-2.2-0.6
	c-0.6-0.3-0.7-1-0.6-1.7c0.1-0.5,0.5-0.8,1-0.6C32.1,37.5,32.3,35.9,33.3,35.5L33.3,35.5z"/>
<path class="st10" d="M25.6,73.9c0.1,0.1,0.4,0.2,0.4,0.2C25.9,74.4,25.8,74.4,25.6,73.9L25.6,73.9z"/>
<path class="st24" d="M33.3,34.5c0.3,0.3,0.6,0.6,1,0.9c-0.3,0-0.6,0-1,0l0,0C33.3,35.2,33.3,34.9,33.3,34.5z"/>
<path class="st25" d="M41.3,24.9c0.6,0.2,0.5,0.7,0.6,1.1c0.1,0.3,0.1,0.6,0.2,0.9c0.2,0.4,0.4,0.9,0.6,1.3c0.2,0.4,0.4,0.9,0.6,1.3
	c0.1,0.3,0.3,0.6,0.4,0.9c0.1,0.5,0.2,0.9,0.2,1.4c0,0.5,0,1,0,1.4c0,0.3,0,0.6,0,0.9c-0.1,0.4-0.2,0.8-0.3,1.3
	C41.4,32.3,40.8,29.3,41.3,24.9z"/>
<path class="st14" d="M51.5,13.4c0.1,1.4-0.3,2.6-1,3.8c-0.7-0.5-1-1.2-0.8-2c0.4-1.3,0.9-2.5,0.9-4C51.8,11.9,51.4,12.7,51.5,13.4z
	"/>
<path class="st0" d="M41.9,41.2c0.3,0.5,0.8,0.9,0.9,1.5c0.1,0.5,0,1.5-0.3,1.6c-0.9,0.4-1.2-0.5-1.5-1.1
	C41.8,42.7,41.9,42,41.9,41.2z"/>
<path class="st0" d="M44.8,45.1c0-1.9,0-3.8-0.1-5.8c0.3,0,0.6,0,1,0c0,1.2,0,2.5,0,3.7C45.7,43.9,45.5,44.6,44.8,45.1z"/>
<path class="st0" d="M50.5,20.1c0,1.1,0.2,2.2-0.8,2.9C49.6,22,49.5,20.9,50.5,20.1z"/>
<path class="st0" d="M47.7,34.5c-0.3,0.3-0.6,0.7-0.9,1C47.1,35.2,47.4,34.9,47.7,34.5z"/>
<path class="st0" d="M34.2,28.8c0.1,0.1,0.4,0.2,0.4,0.2C34.6,29.3,34.4,29.2,34.2,28.8L34.2,28.8z"/>
<circle class="st26" cx="66.1" cy="170.3" r="31.8"/>
<circle cx="66.1" cy="170.3" r="14.7"/>
<linearGradient id="SVGID_1_" gradientUnits="userSpaceOnUse" x1="66.0551" y1="234.5769" x2="66.0551" y2="107.1698">
	<stop  offset="0" style="stop-color:#81A931"/>
	<stop  offset="6.574452e-03" style="stop-color:#82A932"/>
	<stop  offset="0.2601" style="stop-color:#93B54F"/>
	<stop  offset="0.5122" style="stop-color:#A0BE63"/>
	<stop  offset="0.7604" style="stop-color:#A7C370"/>
	<stop  offset="1" style="stop-color:#AAC574"/>
</linearGradient>
<path class="st27" d="M66.1,104.2c-9.9,0-19.4,2.2-27.8,6.1c4,8.8,10.6,17.4,18.8,24.9c-13.9-10.6-25.7-13.1-35-14.1
	C8.5,133.2,0,150.8,0,170.3c0,36.5,29.6,66.1,66.1,66.1c36.5,0,66.1-29.6,66.1-66.1C132.1,133.8,102.5,104.2,66.1,104.2z
	 M66.1,202.1c-17.6,0-31.8-14.3-31.8-31.8c0-17.6,14.3-31.8,31.8-31.8c17.6,0,31.8,14.3,31.8,31.8C97.9,187.9,83.6,202.1,66.1,202.1
	z"/>
</svg>
