<?xml version="1.0" encoding="utf-8"?>
<!-- Generator: Adobe Illustrator 19.1.0, SVG Export Plug-In . SVG Version: 6.00 Build 0)  -->
<svg version="1.1" id="Layer_1" xmlns="http://www.w3.org/2000/svg" xmlns:xlink="http://www.w3.org/1999/xlink" x="0px" y="0px"
	 viewBox="-245 336 121 121" style="enable-background:new -245 336 121 121;" xml:space="preserve">
<style type="text/css">
	.st0{fill:#9EB76C;}
	.st1{fill:#5A7622;}
	.st2{fill:#FFFFFF;}
</style>
<g>
	<path class="st0" d="M-124,449.9c0,3.9-3.2,7.1-7.1,7.1h-106.8c-3.9,0-7.1-3.2-7.1-7.1V343.1c0-3.9,3.2-7.1,7.1-7.1h106.8
		c3.9,0,7.1,3.2,7.1,7.1V449.9z"/>
	<g>
		<path class="st1" d="M-149.6,376.9c-2.5,1.1-5.1,1.8-7.9,2.2c2.8-1.7,5-4.4,6.1-7.6c-2.7,1.6-5.6,2.7-8.8,3.3
			c-2.5-2.7-6.1-4.4-10.1-4.4c-7.6,0-13.8,6.2-13.8,13.8c0,1.1,0.1,2.1,0.4,3.1c-11.5-0.6-21.6-6.1-28.4-14.4
			c-1.2,2-1.9,4.4-1.9,6.9c0,4.8,2.4,9,6.1,11.5c-2.3-0.1-4.4-0.7-6.3-1.7c0,0.1,0,0.1,0,0.2c0,6.7,4.8,12.3,11.1,13.5
			c-1.2,0.3-2.4,0.5-3.6,0.5c-0.9,0-1.8-0.1-2.6-0.3c1.8,5.5,6.9,9.5,12.9,9.6c-4.7,3.7-10.7,5.9-17.1,5.9c-1.1,0-2.2-0.1-3.3-0.2
			c6.1,3.9,13.4,6.2,21.1,6.2c25.4,0,39.2-21,39.2-39.2c0-0.6,0-1.2,0-1.8C-153.8,382.1-151.5,379.7-149.6,376.9z"/>
	</g>
	<g>
		<path class="st2" d="M-150.9,375.7c-2.5,1.1-5.1,1.8-7.9,2.2c2.8-1.7,5-4.4,6.1-7.6c-2.7,1.6-5.6,2.7-8.8,3.3
			c-2.5-2.7-6.1-4.4-10.1-4.4c-7.6,0-13.8,6.2-13.8,13.8c0,1.1,0.1,2.1,0.4,3.1c-11.5-0.6-21.6-6.1-28.4-14.4
			c-1.2,2-1.9,4.4-1.9,6.9c0,4.8,2.4,9,6.1,11.5c-2.3-0.1-4.4-0.7-6.3-1.7c0,0.1,0,0.1,0,0.2c0,6.7,4.8,12.3,11.1,13.5
			c-1.2,0.3-2.4,0.5-3.6,0.5c-0.9,0-1.8-0.1-2.6-0.3c1.8,5.5,6.9,9.5,12.9,9.6c-4.7,3.7-10.7,5.9-17.1,5.9c-1.1,0-2.2-0.1-3.3-0.2
			c6.1,3.9,13.4,6.2,21.1,6.2c25.4,0,39.2-21,39.2-39.2c0-0.6,0-1.2,0-1.8C-155,380.9-152.7,378.4-150.9,375.7z"/>
	</g>
</g>
</svg>
